# File created by Blade
# Date/Time:  Wed Apr 08 17:24:25 2015
#---------------------------------------------------------
:version 1.10
:name HOM
:units
  mass 1.0
  length 1.000000
  angle deg
:documentation
     Acclaim Skeleton File
:root
   axis xyz
   order TX TY TZ RX RY RZ
   position 0.000000 0.000000 0.000000
   orientation 0 0 0
:bonedata
   begin
      id 1
      name Spine_dum
      direction 0.000000 1.000000 0.000000
      length 5.893853
      axis 0.0 0.0 0.0 xyz
   end
   begin
      id 2
      name LeftUpLeg_dum
      direction 1.000000 0.000000 0.000000
      length 3.697939
      axis 0.0 0.0 0.0 xyz
   end
   begin
      id 3
      name RightUpLeg_dum
      direction -1.000000 0.000000 0.000000
      length 3.697939
      axis 0.0 0.0 0.0 xyz
   end
   begin
      id 4
      name Spine
      direction 0.000000 1.000000 0.000000
      length 0.000000
      axis 0.0 0.0 0.0 xyz
      dof rx ry rz
   end
   begin
      id 5
      name Spine_dum1
      direction 0.000000 1.000000 0.000000
      length 16.447146
      axis 0.0 0.0 0.0 xyz
   end
   begin
      id 6
      name Spine_dum2
      direction 0.000000 1.000000 0.000000
      length 10.900383
      axis 0.0 0.0 0.0 xyz
   end
   begin
      id 7
      name Spine_dum3
      direction 0.000000 1.000000 0.000000
      length 10.900383
      axis 0.0 0.0 0.0 xyz
   end
   begin
      id 8
      name Head
      direction 0.000000 1.000000 0.000000
      length 4.527550
      axis 0.0 0.0 0.0 xyz
      dof rx ry rz
   end
   begin
      id 9
      name LeftShoulder
      direction 1.000000 0.000000 0.000000
      length 8.219464
      axis 0.0 0.0 -90.0 xyz
      dof rx ry rz
   end
   begin
      id 10
      name LeftArm
      direction 1.000000 0.000000 0.000000
      length 11.094937
      axis 0.0 0.0 -90.0 xyz
      dof rx ry rz
   end
   begin
      id 11
      name LeftForeArm
      direction 1.000000 0.000000 0.000000
      length 9.103875
      axis 0.0 0.0 -90.0 xyz
      dof ry rz rx
   end
   begin
      id 12
      name LeftHand
      direction 0.000000 0.000000 0.000000
      length 0.000000
      axis 0.0 0.0 -90.0 xyz
      dof rx ry rz
   end
   begin
      id 13
      name LeftHand_dum1
      direction 0.000000 0.000000 0.000000
      length 0.000000
      axis 0.0 0.0 -90.0 xyz
   end
   begin
      id 14
      name LeftHand_dum2
      direction 1.000000 0.000000 0.000000
      length 3.937000
      axis 0.0 0.0 -90.0 xyz
   end
   begin
      id 15
      name LeftHandThumb1
      direction 0.000000 0.000000 1.000000
      length 3.937000
      axis 0.0 0.0 -90.0 xyz
      dof rx rz ry
   end
   begin
      id 16
      name RightShoulder
      direction -1.000000 0.000000 0.000000
      length 8.219464
      axis 0.0 0.0 90.0 xyz
      dof rx ry rz
   end
   begin
      id 17
      name RightArm
      direction -1.000000 0.000000 0.000000
      length 11.094937
      axis 0.0 0.0 90.0 xyz
      dof rx ry rz
   end
   begin
      id 18
      name RightForeArm
      direction -1.000000 0.000000 0.000000
      length 9.103875
      axis 0.0 0.0 90.0 xyz
      dof ry rz rx
   end
   begin
      id 19
      name RightHand
      direction 0.000000 0.000000 0.000000
      length 0.000000
      axis 0.0 0.0 90.0 xyz
      dof rx ry rz
   end
   begin
      id 20
      name RightHand_dum1
      direction 0.000000 0.000000 0.000000
      length 0.000000
      axis 0.0 0.0 90.0 xyz
   end
   begin
      id 21
      name RightHand_dum2
      direction -1.000000 0.000000 0.000000
      length 3.937000
      axis 0.0 0.0 90.0 xyz
   end
   begin
      id 22
      name RightHandThumb1
      direction 0.000000 0.000000 1.000000
      length 3.937000
      axis 0.0 0.0 90.0 xyz
      dof rx rz ry
   end
   begin
      id 23
      name LeftUpLeg
      direction 0.000000 -1.000000 0.000000
      length 16.181467
      axis 0.0 0.0 0.0 xyz
      dof rx ry rz
   end
   begin
      id 24
      name LeftLeg
      direction 0.000000 -1.000000 0.000000
      length 16.501392
      axis 0.0 0.0 0.0 xyz
      dof rx ry rz
   end
   begin
      id 25
      name LeftFoot
      direction 0.000000 -0.258819 0.965926
      length 6.408245
      axis 15.0 0.0 0.0 xyz
      dof rx ry rz
   end
   begin
      id 26
      name LeftToeBase
      direction 0.000000 0.000000 1.000000
      length 2.952750
      axis 0.0 0.0 0.0 xyz
      dof rx ry rz
   end
   begin
      id 27
      name RightUpLeg
      direction 0.000000 -1.000000 0.000000
      length 16.181467
      axis 0.0 0.0 0.0 xyz
      dof rx ry rz
   end
   begin
      id 28
      name RightLeg
      direction 0.000000 -1.000000 0.000000
      length 16.501392
      axis 0.0 0.0 0.0 xyz
      dof rx ry rz
   end
   begin
      id 29
      name RightFoot
      direction 0.000000 -0.258819 0.965926
      length 6.408245
      axis 15.0 0.0 0.0 xyz
      dof rx ry rz
   end
   begin
      id 30
      name RightToeBase
      direction 0.000000 0.000000 1.000000
      length 2.952750
      axis 0.0 0.0 0.0 xyz
      dof rx ry rz
   end
:hierarchy
   begin
      root Spine_dum LeftUpLeg_dum RightUpLeg_dum
      Spine_dum Spine
      LeftUpLeg_dum LeftUpLeg
      RightUpLeg_dum RightUpLeg
      Spine Spine_dum1 Spine_dum2 Spine_dum3
      Spine_dum1 Head
      Spine_dum2 LeftShoulder
      Spine_dum3 RightShoulder
      LeftShoulder LeftArm
      LeftArm LeftForeArm
      LeftForeArm LeftHand
      LeftHand LeftHand_dum1 LeftHand_dum2
      LeftHand_dum1 LeftHandThumb1
      RightShoulder RightArm
      RightArm RightForeArm
      RightForeArm RightHand
      RightHand RightHand_dum1 RightHand_dum2
      RightHand_dum1 RightHandThumb1
      LeftUpLeg LeftLeg
      LeftLeg LeftFoot
      LeftFoot LeftToeBase
      RightUpLeg RightLeg
      RightLeg RightFoot
      RightFoot RightToeBase
   end

# File created by Blade
# Date/Time:  Wed Apr 08 17:24:36 2015
# Frame Rate: 120.000 fps
#------------------------------------------------------
:FULLY-SPECIFIED
:DEGREES
317
root 6.696347 36.280473 2.069751 -29.257081 -42.483517 -16.286432
Spine 50.692470 -7.561364 8.109794
Head -16.245929 33.629064 -5.187466
LeftShoulder 10.118244 7.853806 20.298055
LeftArm 55.578474 33.916364 -67.471181
LeftForeArm -9.529248 -0.000000 32.224595
LeftHand -6.943902 0.000000 -13.989887
LeftHandThumb1 -26.253704 0.000000 33.147579
RightShoulder -7.937885 -40.196881 -2.033653
RightArm 78.910107 -6.788178 38.890055
RightForeArm 44.159227 0.000000 42.682307
RightHand 1.618070 0.000000 20.355326
RightHandThumb1 -24.326973 -0.000000 -32.862282
LeftUpLeg 34.432159 15.547919 23.293290
LeftLeg 26.533700 -0.000000 -0.000000
LeftFoot -21.025286 -4.642745 -1.291890
LeftToeBase 8.403854 -0.000000 -0.000000
RightUpLeg -79.971201 -3.454816 28.794228
RightLeg 142.529056 -0.000000 -0.000000
RightFoot 5.134464 -2.498938 18.118755
RightToeBase -1.922693 -0.000000 0.000000
318
root 6.738292 36.250040 2.150611 -29.681480 -42.067111 -15.279437
Spine 50.258984 -7.426951 7.363904
Head -15.992135 33.658526 -5.041513
LeftShoulder 9.958598 8.081192 20.258003
LeftArm 55.452430 34.169578 -67.305173
LeftForeArm -9.667792 0.000000 33.094133
LeftHand -7.201787 -0.000000 -13.767595
LeftHandThumb1 -26.253704 0.000000 33.147579
RightShoulder -8.132357 -40.376157 -1.990123
RightArm 78.713602 -6.863742 38.901442
RightForeArm 44.275703 -0.000000 43.301440
RightHand 1.517676 -0.000000 20.272224
RightHandThumb1 -24.326973 -0.000000 -32.862282
LeftUpLeg 34.325668 15.685574 22.158498
LeftLeg 26.274755 -0.000000 -0.000000
LeftFoot -20.939973 -4.395527 -1.256072
LeftToeBase 8.465271 -0.000000 -0.000000
RightUpLeg -80.735764 -3.177890 28.144696
RightLeg 143.294822 -0.000000 -0.000000
RightFoot 4.547290 -2.575338 17.984791
RightToeBase -2.211212 -0.000000 0.000000
319
root 6.785878 36.218541 2.231211 -30.004323 -41.608679 -14.284926
Spine 49.731967 -7.293896 6.663551
Head -15.785271 33.642326 -4.959450
LeftShoulder 9.792170 8.269565 20.153484
LeftArm 55.359487 34.479743 -67.065182
LeftForeArm -9.968203 -0.000000 33.984518
LeftHand -7.591312 -0.000000 -13.580733
LeftHandThumb1 -26.253704 0.000000 33.147579
RightShoulder -8.453014 -40.570936 -1.832634
RightArm 78.532089 -6.911189 38.841967
RightForeArm 44.412788 -0.000000 43.929698
RightHand 1.481426 -0.000000 20.221133
RightHandThumb1 -24.326973 -0.000000 -32.862282
LeftUpLeg 34.120462 15.838971 20.988931
LeftLeg 26.004775 -0.000000 -0.000000
LeftFoot -20.841028 -4.179244 -1.219528
LeftToeBase 8.528504 -0.000000 -0.000000
RightUpLeg -81.625122 -2.882049 27.411662
RightLeg 144.083275 -0.000000 -0.000000
RightFoot 4.058733 -2.468137 18.013057
RightToeBase -2.011779 -0.000000 0.000000
320
root 6.839727 36.189226 2.315378 -30.366259 -41.116276 -13.262101
Spine 49.237127 -7.191834 5.935456
Head -15.585682 33.655196 -4.951187
LeftShoulder 9.613156 8.484451 20.021573
LeftArm 55.329805 34.760057 -66.754205
LeftForeArm -10.126799 0.000000 34.917332
LeftHand -7.921115 -0.000000 -13.400184
LeftHandThumb1 -26.253704 0.000000 33.147579
RightShoulder -8.760368 -40.759647 -1.709684
RightArm 78.323847 -6.940552 38.844618
RightForeArm 44.475367 -0.000000 44.587586
RightHand 1.488939 -0.000000 20.235990
RightHandThumb1 -24.326973 -0.000000 -32.862282
LeftUpLeg 33.927864 15.971718 19.779477
LeftLeg 25.732385 -0.000000 -0.000000
LeftFoot -20.716636 -3.983951 -1.228264
LeftToeBase 8.735918 -0.000000 -0.000000
RightUpLeg -82.523244 -2.609416 26.575311
RightLeg 144.886094 -0.000000 -0.000000
RightFoot 3.778440 -2.238263 18.165685
RightToeBase -2.108523 -0.000000 0.000000
321
root 6.829821 36.197078 2.339507 -30.335063 -40.757010 -13.255713
Spine 49.090847 -7.276503 5.894569
Head -15.530320 33.620332 -4.914211
LeftShoulder 9.469542 8.594147 19.964207
LeftArm 55.345651 35.001402 -66.392248
LeftForeArm -10.239748 -0.000000 35.885186
LeftHand -8.321579 -0.000000 -13.214617
LeftHandThumb1 -26.253704 0.000000 33.147579
RightShoulder -9.014362 -40.874327 -1.556661
RightArm 77.989918 -6.947104 38.983804
RightForeArm 44.513315 0.000000 45.386775
RightHand 1.453072 -0.000000 20.163442
RightHandThumb1 -24.326973 -0.000000 -32.862282
LeftUpLeg 33.877176 15.985201 19.877160
LeftLeg 25.710351 -0.000000 -0.000000
LeftFoot -20.698938 -4.434028 -1.286647
LeftToeBase 9.023260 -0.000000 -0.000000
RightUpLeg -83.092219 -2.801301 26.709142
RightLeg 145.348435 -0.000000 -0.000000
RightFoot 3.965795 -2.316463 18.378714
RightToeBase -2.376281 -0.000000 0.000000
